<?xml version="1.0" encoding="utf-8"?>
<svg viewBox="0 0 500 500" xmlns="http://www.w3.org/2000/svg">
  <g transform="matrix(0.917061, 0, 0, 0.911436, 9.635654, 15.752489)" style="">
    <path style="fill: rgb(86, 49, 36);" d="M 250.381 486.616 C 187.264 488.135 82.8 469.838 78.149 403.105 C 75.144 360.013 134.83 350.194 146.84 330.3 C 157.268 313.026 170.521 237.372 243.309 233.94 C 339.567 229.401 323.261 290.299 346.082 321.199 C 374.538 359.729 412.197 338.766 419.165 405.246 C 426.086 471.282 313.01 485.108 250.381 486.616 Z"/>
    <path style="fill: rgb(86, 49, 36);" d="M 22.504 279.865 C 13.537 249.212 21.011 196.966 54.969 189.394 C 90.504 181.47 125.301 226.639 133.475 258.988 C 140.857 288.203 126.259 322.366 94.186 329.594 C 60.392 337.21 31.435 310.39 22.504 279.865 Z" transform="matrix(0.953285, -0.302071, 0.302071, 0.953285, -74.839064, 35.447307)"/>
    <path style="fill: rgb(86, 49, 36);" d="M 381.743 277.362 C 373.236 245.956 380.327 192.427 412.542 184.669 C 446.253 176.55 479.264 222.829 487.018 255.973 C 494.021 285.905 480.173 320.907 449.746 328.313 C 417.686 336.116 390.215 308.637 381.743 277.362 Z" transform="matrix(0.720147, 0.693821, -0.693821, 0.720147, 299.447664, -229.018399)"/>
    <path style="fill: rgb(86, 49, 36);" d="M 271.942 150.417 C 263.059 119.773 270.776 56.931 301.397 49.361 C 333.442 41.439 390.875 114.086 399.079 146.426 C 406.489 175.633 384.631 212.49 355.71 219.715 C 325.238 227.329 280.788 180.934 271.942 150.417 Z" transform="matrix(0.703011, 0.711179, -0.711179, 0.703011, 195.109345, -197.907078)"/>
    <path style="fill: rgb(86, 49, 36);" d="M 123.682 153.319 C 115.093 126.33 113.433 77.418 143.338 70.515 C 174.635 63.291 233.201 118.964 244.694 148.458 C 255.076 175.093 231.799 220.406 203.563 226.995 C 173.811 233.94 132.867 182.182 123.682 153.319 Z" transform="matrix(0.887956, 0.459929, -0.459929, 0.887956, 88.888888, -67.374736)"/>
  </g>
</svg>